<svg width="38.571411" height="30.000000" viewBox="0 0 38.5714 30" fill="none" xmlns="http://www.w3.org/2000/svg" xmlns:xlink="http://www.w3.org/1999/xlink">
	<desc>
			Created with Pixso.
	</desc>
	<defs/>
	<path id="Vector" d="M38.57 12.85L36.42 12.85L36.42 23.57L38.57 23.57L38.57 30L32.14 30L32.14 27.85L17.14 27.85L17.14 30L10.71 30L10.71 23.57L12.85 23.57L12.85 21.42L6.42 21.42L6.42 23.57L0 23.57L0 17.14L2.14 17.14L2.14 6.42L0 6.42L0 0L6.42 0L6.42 2.14L21.42 2.14L21.42 0L27.85 0L27.85 6.42L25.71 6.42L25.71 8.57L32.14 8.57L32.14 6.42L38.57 6.42L38.57 12.85ZM34.28 8.57L34.28 10.71L36.42 10.71L36.42 8.57L34.28 8.57ZM23.57 2.14L23.57 4.28L25.71 4.28L25.71 2.14L23.57 2.14ZM2.14 2.14L2.14 4.28L4.28 4.28L4.28 2.14L2.14 2.14ZM4.28 21.42L4.28 19.28L2.14 19.28L2.14 21.42L4.28 21.42ZM25.71 19.28L23.57 19.28L23.57 21.42L25.71 21.42L25.71 19.28ZM6.42 19.28L21.42 19.28L21.42 17.14L23.57 17.14L23.57 6.42L21.42 6.42L21.42 4.28L6.42 4.28L6.42 6.42L4.28 6.42L4.28 17.14L6.42 17.14L6.42 19.28ZM15 27.85L15 25.71L12.85 25.71L12.85 27.85L15 27.85ZM36.42 27.85L36.42 25.71L34.28 25.71L34.28 27.85L36.42 27.85ZM34.28 23.57L34.28 12.85L32.14 12.85L32.14 10.71L25.71 10.71L25.71 17.14L27.85 17.14L27.85 23.57L21.42 23.57L21.42 21.42L15 21.42L15 23.57L17.14 23.57L17.14 25.71L32.14 25.71L32.14 23.57L34.28 23.57Z" fill="#2796E2" fill-opacity="1.000000" fill-rule="nonzero"/>
</svg>
