<svg width="15.853210" height="15.000000" viewBox="0 0 15.8532 15" fill="none" xmlns="http://www.w3.org/2000/svg" xmlns:xlink="http://www.w3.org/1999/xlink">
	<desc>
			Created with Pixso.
	</desc>
	<defs/>
	<mask id="mask_0_637" fill="white">
		<path id="Combined Shape" d="M14.3532 0L1.5 0C0.67157 0 0 0.671875 0 1.5C0 2.32812 0.67157 3 1.5 3L14.3532 3C15.1816 3 15.8532 2.32812 15.8532 1.5C15.8532 0.671875 15.1816 0 14.3532 0ZM1.5 6L14.3532 6C15.1816 6 15.8532 6.67188 15.8532 7.5C15.8532 8.32812 15.1816 9 14.3532 9L1.5 9C0.67157 9 0 8.32812 0 7.5C0 6.67188 0.67157 6 1.5 6ZM14.3532 12L1.5 12C0.67157 12 0 12.6719 0 13.5C0 14.3281 0.67157 15 1.5 15L14.3532 15C15.1816 15 15.8532 14.3281 15.8532 13.5C15.8532 12.6719 15.1816 12 14.3532 12Z" clip-rule="evenodd" fill="" fill-opacity="1.000000" fill-rule="evenodd"/>
	</mask>
	<path id="Combined Shape" d="M14.3532 0L1.5 0C0.67157 0 0 0.671875 0 1.5C0 2.32812 0.67157 3 1.5 3L14.3532 3C15.1816 3 15.8532 2.32812 15.8532 1.5C15.8532 0.671875 15.1816 0 14.3532 0ZM1.5 6L14.3532 6C15.1816 6 15.8532 6.67188 15.8532 7.5C15.8532 8.32812 15.1816 9 14.3532 9L1.5 9C0.67157 9 0 8.32812 0 7.5C0 6.67188 0.67157 6 1.5 6ZM14.3532 12L1.5 12C0.67157 12 0 12.6719 0 13.5C0 14.3281 0.67157 15 1.5 15L14.3532 15C15.1816 15 15.8532 14.3281 15.8532 13.5C15.8532 12.6719 15.1816 12 14.3532 12Z" clip-rule="evenodd" fill="#333D4B" fill-opacity="1.000000" fill-rule="evenodd" mask="url(#mask_0_637)"/>
	<path id="Combined Shape" d="" fill="#979797" fill-opacity="0.000000" fill-rule="nonzero"/>
</svg>
