<svg width="25.714233" height="25.714233" viewBox="0 0 25.7142 25.7142" fill="none" xmlns="http://www.w3.org/2000/svg" xmlns:xlink="http://www.w3.org/1999/xlink">
	<desc>
			Created with Pixso.
	</desc>
	<defs/>
	<path id="Vector" d="M15.88 9.82C15.88 9.82 16.09 10.03 16.51 10.45C16.93 10.87 17.14 11.67 17.14 12.85C17.14 14.04 16.72 15.05 15.88 15.88C15.05 16.72 14.04 17.14 12.85 17.14C11.67 17.14 10.66 16.72 9.82 15.88C8.98 15.05 8.57 14.04 8.57 12.85C8.57 11.67 8.98 10.66 9.82 9.82C10.66 8.98 11.67 8.57 12.85 8.57C14.04 8.57 15.05 8.98 15.88 9.82ZM17.4 17.4C17.4 17.4 17.71 17.08 18.34 16.46C18.97 15.83 19.28 14.63 19.28 12.85C19.28 11.08 18.65 9.56 17.4 8.31C16.14 7.05 14.63 6.42 12.85 6.42C11.08 6.42 9.56 7.05 8.31 8.31C7.05 9.56 6.42 11.08 6.42 12.85C6.42 14.63 7.05 16.14 8.31 17.4C9.56 18.65 11.08 19.28 12.85 19.28C14.63 19.28 16.14 18.65 17.4 17.4ZM18.91 6.79C18.91 6.79 19.33 7.21 20.17 8.05C21.01 8.88 21.42 10.49 21.42 12.85C21.42 15.22 20.59 17.24 18.91 18.91C17.24 20.59 15.22 21.42 12.85 21.42C10.49 21.42 8.47 20.59 6.79 18.91C5.12 17.24 4.28 15.22 4.28 12.85C4.28 10.49 5.12 8.47 6.79 6.79C8.47 5.12 10.49 4.28 12.85 4.28C15.22 4.28 17.24 5.12 18.91 6.79ZM22.71 17.01C22.71 17.01 22.86 16.68 23.14 16.02C23.42 15.36 23.57 14.3 23.57 12.85C23.57 11.4 23.28 10.01 22.71 8.69C22.14 7.37 21.38 6.23 20.43 5.28C19.47 4.32 18.33 3.56 17.01 2.99C15.69 2.42 14.3 2.14 12.85 2.14C11.4 2.14 10.01 2.42 8.69 2.99C7.37 3.56 6.23 4.32 5.28 5.28C4.32 6.23 3.56 7.37 2.99 8.69C2.42 10.01 2.14 11.4 2.14 12.85C2.14 14.3 2.42 15.69 2.99 17.01C3.56 18.33 4.32 19.47 5.28 20.43C6.23 21.38 7.37 22.14 8.69 22.71C10.01 23.28 11.4 23.57 12.85 23.57C14.3 23.57 15.69 23.28 17.01 22.71C18.33 22.14 19.47 21.38 20.43 20.43C21.38 19.47 22.14 18.33 22.71 17.01ZM23.99 6.4C23.99 6.4 24.27 6.89 24.85 7.88C25.42 8.86 25.71 10.52 25.71 12.85C25.71 15.18 25.13 17.34 23.99 19.31C22.84 21.28 21.28 22.84 19.31 23.98C17.34 25.13 15.18 25.71 12.85 25.71C10.52 25.71 8.37 25.13 6.4 23.98C4.43 22.84 2.87 21.28 1.72 19.31C0.57 17.34 0 15.18 0 12.85C0 10.52 0.57 8.37 1.72 6.4C2.87 4.43 4.43 2.87 6.4 1.72C8.37 0.57 10.52 0 12.85 0C15.18 0 17.34 0.57 19.31 1.72C21.28 2.87 22.84 4.43 23.99 6.4Z" fill="#9774FA" fill-opacity="1.000000" fill-rule="nonzero"/>
</svg>
